<?xml version="1.0" encoding="UTF-8" standalone="no"?>
<!-- Created with Inkscape (http://www.inkscape.org/) -->

<svg
   xmlns:dc="http://purl.org/dc/elements/1.1/"
   xmlns:cc="http://creativecommons.org/ns#"
   xmlns:rdf="http://www.w3.org/1999/02/22-rdf-syntax-ns#"
   xmlns:svg="http://www.w3.org/2000/svg"
   xmlns="http://www.w3.org/2000/svg"
   xmlns:sodipodi="http://sodipodi.sourceforge.net/DTD/sodipodi-0.dtd"
   xmlns:inkscape="http://www.inkscape.org/namespaces/inkscape"
   width="26.836309mm"
   height="26.83639mm"
   viewBox="0 0 26.836309 26.836389"
   version="1.1"
   id="svg1006"
   inkscape:version="0.92.2 (5c3e80d, 2017-08-06)"
   sodipodi:docname="black_queen.svg">
  <defs
     id="defs1000" />
  <sodipodi:namedview
     id="base"
     pagecolor="#ffffff"
     bordercolor="#666666"
     borderopacity="1.0"
     inkscape:pageopacity="0.0"
     inkscape:pageshadow="2"
     inkscape:zoom="5.6"
     inkscape:cx="87.910432"
     inkscape:cy="74.256199"
     inkscape:document-units="mm"
     inkscape:current-layer="layer1"
     showgrid="false"
     inkscape:window-width="2560"
     inkscape:window-height="1377"
     inkscape:window-x="-8"
     inkscape:window-y="-8"
     inkscape:window-maximized="1" />
  <metadata
     id="metadata1003">
    <rdf:RDF>
      <cc:Work
         rdf:about="">
        <dc:format>image/svg+xml</dc:format>
        <dc:type
           rdf:resource="http://purl.org/dc/dcmitype/StillImage" />
        <dc:title></dc:title>
      </cc:Work>
    </rdf:RDF>
  </metadata>
  <g
     inkscape:label="Layer 1"
     inkscape:groupmode="layer"
     id="layer1"
     transform="translate(-76.20945,-169.85823)">
    <path
       style="opacity:1;fill:#000000;fill-opacity:1;fill-rule:nonzero;stroke:#ffffff;stroke-width:0.5;stroke-miterlimit:4;stroke-dasharray:none;stroke-opacity:1"
       d="m 89.587038,180.18558 a 1.3252669,1.3252669 0 0 0 -1.324983,1.32551 1.3252669,1.3252669 0 0 0 0.886767,1.24901 l -1.628326,4.20647 -2.313035,-3.77755 a 1.0914061,1.0914061 0 0 0 0.526582,-0.93276 1.0914061,1.0914061 0 0 0 -1.091406,-1.09141 1.0914061,1.0914061 0 0 0 -1.091406,1.09141 1.0914061,1.0914061 0 0 0 1.091406,1.0914 1.0914061,1.0914061 0 0 0 0.09095,-0.004 l 0.502812,3.90467 -2.411738,-2.92643 a 1.0914061,1.0914061 0 0 0 0.39429,-0.83871 1.0914061,1.0914061 0 0 0 -1.091406,-1.09141 1.0914061,1.0914061 0 0 0 -1.091407,1.09141 1.0914061,1.0914061 0 0 0 1.091407,1.0914 1.0914061,1.0914061 0 0 0 0.327112,-0.0517 l 1.34462,4.79454 0.788065,1.84795 h -0.655773 c -0.183224,0 -0.330729,0.14751 -0.330729,0.33073 v 1.25675 c 0,0.18322 0.147505,0.33072 0.330729,0.33072 h 0.94723 a 8.0849028,4.1426784 0 0 0 -3.376539,3.36104 h 8.084778 8.085293 a 8.0849028,4.1426784 0 0 0 -3.360002,-3.36103 h 0.930177 c 0.183224,0 0.33073,-0.14751 0.33073,-0.33073 v -1.25677 c 0,-0.18323 -0.147506,-0.33073 -0.33073,-0.33073 h -0.655775 l 0.788067,-1.84795 1.335836,-4.76354 a 1.0914061,1.0914061 0 0 0 0.417029,0.0837 1.0914061,1.0914061 0 0 0 1.091406,-1.0914 1.0914061,1.0914061 0 0 0 -1.091406,-1.09141 1.0914061,1.0914061 0 0 0 -1.091407,1.09141 1.0914061,1.0914061 0 0 0 0.318326,0.76998 l -2.416905,2.93263 0.494543,-3.83749 a 1.0914061,1.0914061 0 0 0 0.198438,0.0191 1.0914061,1.0914061 0 0 0 1.091406,-1.0914 1.0914061,1.0914061 0 0 0 -1.091406,-1.09141 1.0914061,1.0914061 0 0 0 -1.091407,1.09141 1.0914061,1.0914061 0 0 0 0.42168,0.85989 l -2.307352,3.76825 -1.628325,-4.20698 a 1.3252669,1.3252669 0 0 0 0.887285,-1.24902 1.3252669,1.3252669 0 0 0 -1.325501,-1.3255 z"
       id="path1617"
       inkscape:connector-curvature="0" />
  </g>
</svg>
