<?xml version="1.0" encoding="UTF-8" standalone="no"?>
<!-- Created with Inkscape (http://www.inkscape.org/) -->

<svg
   xmlns:dc="http://purl.org/dc/elements/1.1/"
   xmlns:cc="http://creativecommons.org/ns#"
   xmlns:rdf="http://www.w3.org/1999/02/22-rdf-syntax-ns#"
   xmlns:svg="http://www.w3.org/2000/svg"
   xmlns="http://www.w3.org/2000/svg"
   xmlns:sodipodi="http://sodipodi.sourceforge.net/DTD/sodipodi-0.dtd"
   xmlns:inkscape="http://www.inkscape.org/namespaces/inkscape"
   width="26.836309mm"
   height="26.836309mm"
   viewBox="0 0 26.836309 26.836309"
   version="1.1"
   id="svg1006"
   inkscape:version="0.92.2 (5c3e80d, 2017-08-06)"
   sodipodi:docname="black_knight.svg">
  <defs
     id="defs1000" />
  <sodipodi:namedview
     id="base"
     pagecolor="#ffffff"
     bordercolor="#666666"
     borderopacity="1.0"
     inkscape:pageopacity="0.0"
     inkscape:pageshadow="2"
     inkscape:zoom="5.6"
     inkscape:cx="-0.39314883"
     inkscape:cy="72.648841"
     inkscape:document-units="mm"
     inkscape:current-layer="layer1"
     showgrid="false"
     inkscape:window-width="1278"
     inkscape:window-height="1368"
     inkscape:window-x="3193"
     inkscape:window-y="92"
     inkscape:window-maximized="0" />
  <metadata
     id="metadata1003">
    <rdf:RDF>
      <cc:Work
         rdf:about="">
        <dc:format>image/svg+xml</dc:format>
        <dc:type
           rdf:resource="http://purl.org/dc/dcmitype/StillImage" />
        <dc:title />
      </cc:Work>
    </rdf:RDF>
  </metadata>
  <g
     inkscape:label="Layer 1"
     inkscape:groupmode="layer"
     id="layer1"
     transform="translate(-97.706848,-169.43303)">
    <g
       transform="translate(35.87292,157.58532)"
       id="knight">
      <path
         style="opacity:1;fill:#000000;fill-opacity:1;fill-rule:nonzero;stroke:none;stroke-width:0.71730244;stroke-opacity:1"
         d="m 265.95312,292.14844 c -2.51775,0.0432 -3.77672,1.95745 -3.16015,5.55078 -13.00804,1.86433 -12.87097,16.82282 -21.67969,20.56836 -1.33387,0.56718 3.43896,5.05562 4.00781,6.1289 -1.24475,6.18229 5.36973,3.03532 10.51563,1.36719 6.68122,-2.16583 10.88703,-1.83919 -7.79102,24.63281 -2.93891,4.62332 -1.03173,7.15531 3.07227,8.44141 a 30.557113,15.657367 0 0 0 -13.61719,13.01953 h 30.55664 30.55664 a 30.557113,15.657367 0 0 0 -15.27929,-13.56054 30.557113,15.657367 0 0 0 -1.32032,-0.36719 c 13.36363,-4.26283 14.77519,-39.11302 -1.21484,-56.26563 -6.09148,-6.53435 -11.40936,-9.5712 -14.64649,-9.51562 z"
         transform="matrix(0.26458333,0,0,0.26458333,4.3814745,-59.703254)"
         id="path1005"
         inkscape:connector-curvature="0" />
    </g>
  </g>
</svg>
