<?xml version="1.0" encoding="UTF-8" standalone="no"?>
<!-- Created with Inkscape (http://www.inkscape.org/) -->

<svg
   xmlns:dc="http://purl.org/dc/elements/1.1/"
   xmlns:cc="http://creativecommons.org/ns#"
   xmlns:rdf="http://www.w3.org/1999/02/22-rdf-syntax-ns#"
   xmlns:svg="http://www.w3.org/2000/svg"
   xmlns="http://www.w3.org/2000/svg"
   xmlns:sodipodi="http://sodipodi.sourceforge.net/DTD/sodipodi-0.dtd"
   xmlns:inkscape="http://www.inkscape.org/namespaces/inkscape"
   width="26.836309mm"
   height="26.83633mm"
   viewBox="0 0 26.836309 26.83633"
   version="1.1"
   id="svg1006"
   inkscape:version="0.92.2 (5c3e80d, 2017-08-06)"
   sodipodi:docname="black_king.svg">
  <defs
     id="defs1000" />
  <sodipodi:namedview
     id="base"
     pagecolor="#ffffff"
     bordercolor="#666666"
     borderopacity="1.0"
     inkscape:pageopacity="0.0"
     inkscape:pageshadow="2"
     inkscape:zoom="5.6"
     inkscape:cx="62.82115"
     inkscape:cy="73.363173"
     inkscape:document-units="mm"
     inkscape:current-layer="layer1"
     showgrid="false"
     inkscape:window-width="1278"
     inkscape:window-height="1368"
     inkscape:window-x="3193"
     inkscape:window-y="92"
     inkscape:window-maximized="0" />
  <metadata
     id="metadata1003">
    <rdf:RDF>
      <cc:Work
         rdf:about="">
        <dc:format>image/svg+xml</dc:format>
        <dc:type
           rdf:resource="http://purl.org/dc/dcmitype/StillImage" />
        <dc:title />
      </cc:Work>
    </rdf:RDF>
  </metadata>
  <g
     inkscape:label="Layer 1"
     inkscape:groupmode="layer"
     id="layer1"
     transform="translate(-74.792038,-169.62201)">
    <g
       transform="matrix(1.1986486,0,0,1.1986486,-25.502162,150.08981)"
       id="king">
      <path
         style="opacity:1;fill:#000000;fill-opacity:1;fill-rule:nonzero;stroke:none;stroke-width:1.11776292;stroke-opacity:1"
         d="m 366.86328,282.25781 v 8.02149 h -8.02148 v 4.84179 h 8.02148 v 4.17579 c -5.46934,1.82839 -14.3807,6.10363 -7.07031,15.9707 -11.57283,-4.29017 -28.65664,-8.26743 -20.62695,9.67187 8.86292,19.80085 20.39716,11.50948 11.92382,24.625 -1.95046,3.01905 -1.1237,4.77073 0.98633,5.75 a 36.62724,18.767681 0 0 0 -1.10351,0.28907 36.62724,18.767681 0 0 0 -18.31446,16.2539 h 36.62696 36.62695 a 36.62724,18.767681 0 0 0 -18.3125,-16.2539 36.62724,18.767681 0 0 0 -1.08008,-0.30079 c 2.09237,-0.98143 2.90602,-2.73059 0.96289,-5.73828 -8.47334,-13.11552 3.05896,-4.82415 11.92188,-24.625 8.02931,-17.93847 -9.0522,-13.96182 -20.625,-9.67187 7.31155,-9.86864 -1.60316,-14.14475 -7.07227,-15.97266 v -4.17383 h 8.02149 v -4.84179 h -8.02149 v -8.02149 z"
         transform="matrix(0.2207347,0,0,0.2207347,13.353084,-43.397831)"
         id="path1013"
         inkscape:connector-curvature="0" />
    </g>
  </g>
</svg>
