<?xml version="1.0" encoding="UTF-8" standalone="no"?>
<!-- Created with Inkscape (http://www.inkscape.org/) -->

<svg
   xmlns:dc="http://purl.org/dc/elements/1.1/"
   xmlns:cc="http://creativecommons.org/ns#"
   xmlns:rdf="http://www.w3.org/1999/02/22-rdf-syntax-ns#"
   xmlns:svg="http://www.w3.org/2000/svg"
   xmlns="http://www.w3.org/2000/svg"
   xmlns:sodipodi="http://sodipodi.sourceforge.net/DTD/sodipodi-0.dtd"
   xmlns:inkscape="http://www.inkscape.org/namespaces/inkscape"
   width="26.836309mm"
   height="26.83633mm"
   viewBox="0 0 26.836309 26.83633"
   version="1.1"
   id="svg1006"
   inkscape:version="0.92.2 (5c3e80d, 2017-08-06)"
   sodipodi:docname="white_king.svg">
  <defs
     id="defs1000" />
  <sodipodi:namedview
     id="base"
     pagecolor="#ffffff"
     bordercolor="#666666"
     borderopacity="1.0"
     inkscape:pageopacity="0.0"
     inkscape:pageshadow="2"
     inkscape:zoom="5.6"
     inkscape:cx="93.267579"
     inkscape:cy="73.363173"
     inkscape:document-units="mm"
     inkscape:current-layer="layer1"
     showgrid="false"
     inkscape:window-width="2560"
     inkscape:window-height="1377"
     inkscape:window-x="-8"
     inkscape:window-y="-8"
     inkscape:window-maximized="1" />
  <metadata
     id="metadata1003">
    <rdf:RDF>
      <cc:Work
         rdf:about="">
        <dc:format>image/svg+xml</dc:format>
        <dc:type
           rdf:resource="http://purl.org/dc/dcmitype/StillImage" />
        <dc:title></dc:title>
      </cc:Work>
    </rdf:RDF>
  </metadata>
  <g
     inkscape:label="Layer 1"
     inkscape:groupmode="layer"
     id="layer1"
     transform="translate(-74.792038,-169.62201)">
    <path
       style="opacity:1;fill:#ffffff;fill-opacity:1;fill-rule:nonzero;stroke:#000000;stroke-width:0.5;stroke-miterlimit:4;stroke-dasharray:none;stroke-opacity:1"
       d="m 87.675603,176.4302 v 1.77095 h -1.77095 v 1.06918 h 1.77095 v 0.9214 c -1.20726,0.40352 -3.17466,1.34701 -1.56063,3.52536 -2.55452,-0.94697 -6.3256,-1.82499 -4.55321,2.13476 1.95636,4.37073 4.50224,2.54079 2.63188,5.43584 -0.43068,0.66664 -0.24805,1.05306 0.21808,1.26917 a 8.0849028,4.1426784 0 0 0 -0.24392,0.0641 8.0849028,4.1426784 0 0 0 -4.04264,3.58738 h 8.08477 8.0853 a 8.0849028,4.1426784 0 0 0 -4.04265,-3.58738 8.0849028,4.1426784 0 0 0 -0.23823,-0.0672 c 0.46161,-0.21666 0.64121,-0.60233 0.2124,-1.26607 -1.87036,-2.89505 0.67552,-1.06511 2.63187,-5.43584 1.7724,-3.95975 -1.99868,-3.08173 -4.5532,-2.13476 1.61402,-2.17834 -0.35337,-3.12184 -1.56063,-3.52536 v -0.9214 h 1.77043 v -1.06918 h -1.77043 v -1.77095 z"
       id="path1569"
       inkscape:connector-curvature="0" />
  </g>
</svg>
