<?xml version="1.0" encoding="UTF-8" standalone="no"?>
<!-- Created with Inkscape (http://www.inkscape.org/) -->

<svg
   xmlns:dc="http://purl.org/dc/elements/1.1/"
   xmlns:cc="http://creativecommons.org/ns#"
   xmlns:rdf="http://www.w3.org/1999/02/22-rdf-syntax-ns#"
   xmlns:svg="http://www.w3.org/2000/svg"
   xmlns="http://www.w3.org/2000/svg"
   xmlns:sodipodi="http://sodipodi.sourceforge.net/DTD/sodipodi-0.dtd"
   xmlns:inkscape="http://www.inkscape.org/namespaces/inkscape"
   width="26.836309mm"
   height="26.836309mm"
   viewBox="0 0 26.836309 26.836309"
   version="1.1"
   id="svg1006"
   inkscape:version="0.92.2 (5c3e80d, 2017-08-06)"
   sodipodi:docname="white_knight.svg">
  <defs
     id="defs1000" />
  <sodipodi:namedview
     id="base"
     pagecolor="#ffffff"
     bordercolor="#666666"
     borderopacity="1.0"
     inkscape:pageopacity="0.0"
     inkscape:pageshadow="2"
     inkscape:zoom="5.6"
     inkscape:cx="6.6604226"
     inkscape:cy="72.648841"
     inkscape:document-units="mm"
     inkscape:current-layer="layer1"
     showgrid="false"
     inkscape:window-width="2560"
     inkscape:window-height="1377"
     inkscape:window-x="-8"
     inkscape:window-y="-8"
     inkscape:window-maximized="1" />
  <metadata
     id="metadata1003">
    <rdf:RDF>
      <cc:Work
         rdf:about="">
        <dc:format>image/svg+xml</dc:format>
        <dc:type
           rdf:resource="http://purl.org/dc/dcmitype/StillImage" />
        <dc:title></dc:title>
      </cc:Work>
    </rdf:RDF>
  </metadata>
  <g
     inkscape:label="Layer 1"
     inkscape:groupmode="layer"
     id="layer1"
     transform="translate(-97.706848,-169.43303)">
    <path
       style="opacity:1;fill:#ffffff;fill-opacity:1;fill-rule:nonzero;stroke:#303030;stroke-width:0.5;stroke-miterlimit:4;stroke-dasharray:none;stroke-opacity:1"
       d="m 110.62114,174.9302 c -0.66615,0.0114 -0.99925,0.51739 -0.83612,1.46812 -4.08034,0.5848 -6.92357,5.15573 -5.96191,6.97012 0.37196,0.62563 1.0047,0.44729 1.2976,0.0537 1.4988,-2.01382 1.70742,-1.90181 1.48001,0.19069 -0.0655,0.60264 6.9786,-6.0509 -0.7705,6.72827 -0.69355,1.14374 0.28332,1.70328 1.81281,1.94355 a 8.0849028,4.1426784 0 0 0 -0.56069,0.14728 8.0849028,4.1426784 0 0 0 -4.04213,3.58737 h 8.08478 8.08478 a 8.0849028,4.1426784 0 0 0 -4.04265,-3.58737 8.0849028,4.1426784 0 0 0 -1.10639,-0.2713 c 0.096,-0.0138 0.19904,-0.0278 0.2775,-0.0408 3.76241,-0.77046 4.48498,-10.03105 0.15813,-14.67249 -1.6117,-1.72889 -3.01873,-2.53187 -3.87522,-2.51716 z"
       id="path977"
       inkscape:connector-curvature="0" />
  </g>
</svg>
