<?xml version="1.0" encoding="UTF-8" standalone="no"?>
<!-- Created with Inkscape (http://www.inkscape.org/) -->

<svg
   xmlns:dc="http://purl.org/dc/elements/1.1/"
   xmlns:cc="http://creativecommons.org/ns#"
   xmlns:rdf="http://www.w3.org/1999/02/22-rdf-syntax-ns#"
   xmlns:svg="http://www.w3.org/2000/svg"
   xmlns="http://www.w3.org/2000/svg"
   xmlns:sodipodi="http://sodipodi.sourceforge.net/DTD/sodipodi-0.dtd"
   xmlns:inkscape="http://www.inkscape.org/namespaces/inkscape"
   width="26.836309mm"
   height="26.83639mm"
   viewBox="0 0 26.836309 26.836389"
   version="1.1"
   id="svg1006"
   inkscape:version="0.92.2 (5c3e80d, 2017-08-06)"
   sodipodi:docname="white_queen.svg">
  <defs
     id="defs1000" />
  <sodipodi:namedview
     id="base"
     pagecolor="#ffffff"
     bordercolor="#666666"
     borderopacity="1.0"
     inkscape:pageopacity="0.0"
     inkscape:pageshadow="2"
     inkscape:zoom="5.6"
     inkscape:cx="57.464003"
     inkscape:cy="74.256199"
     inkscape:document-units="mm"
     inkscape:current-layer="layer1"
     showgrid="false"
     inkscape:window-width="2560"
     inkscape:window-height="1377"
     inkscape:window-x="1912"
     inkscape:window-y="84"
     inkscape:window-maximized="1" />
  <metadata
     id="metadata1003">
    <rdf:RDF>
      <cc:Work
         rdf:about="">
        <dc:format>image/svg+xml</dc:format>
        <dc:type
           rdf:resource="http://purl.org/dc/dcmitype/StillImage" />
        <dc:title />
      </cc:Work>
    </rdf:RDF>
  </metadata>
  <g
     inkscape:label="Layer 1"
     inkscape:groupmode="layer"
     id="layer1"
     transform="translate(-76.20945,-169.85823)">
    <g
       transform="matrix(1.3452058,0,0,1.3452058,-62.830272,143.73916)"
       id="queen"
       style="fill:#ffffff">
      <path
         style="opacity:1;fill:#ffffff;fill-opacity:1;fill-rule:nonzero;stroke:none;stroke-width:0.18978627;stroke-opacity:1"
         d="m 113.29348,23.106798 a 1.325267,1.325267 0 0 0 -1.32533,1.325326 1.325267,1.325267 0 0 0 0.88701,1.249264 l -1.62842,4.206855 -2.31298,-3.77814 a 1.0914061,1.0914061 0 0 0 0.52667,-0.932723 1.0914061,1.0914061 0 0 0 -1.09138,-1.091378 1.0914061,1.0914061 0 0 0 -1.09138,1.091378 1.0914061,1.0914061 0 0 0 1.09138,1.091762 1.0914061,1.0914061 0 0 0 0.0907,-0.0046 l 0.50324,3.904527 -2.41209,-2.92609 a 1.0914061,1.0914061 0 0 0 0.39452,-0.83899 1.0914061,1.0914061 0 0 0 -1.09138,-1.091378 1.0914061,1.0914061 0 0 0 -1.09137,1.091378 1.0914061,1.0914061 0 0 0 1.09137,1.091378 1.0914061,1.0914061 0 0 0 0.3273,-0.05148 l 1.34454,4.794608 0.78828,1.847776 h -0.65613 c -0.18323,0 -0.33076,0.14753 -0.33076,0.330755 v 1.256947 c 0,0.183223 0.14753,0.330755 0.33076,0.330755 h 0.94655 a 8.0849028,4.1426782 0 0 0 -3.37594,3.361335 h 8.08488 8.08488 a 8.0849028,4.1426782 0 0 0 -3.35903,-3.361335 h 0.92965 c 0.18322,0 0.33075,-0.147532 0.33075,-0.330755 v -1.256947 c 0,-0.183225 -0.14753,-0.330757 -0.33075,-0.330755 h -0.65575 l 0.78828,-1.847776 1.33531,-4.763107 a 1.0914061,1.0914061 0 0 0 0.41719,0.08336 1.0914061,1.0914061 0 0 0 1.09176,-1.091378 1.0914061,1.0914061 0 0 0 -1.09176,-1.091378 1.0914061,1.0914061 0 0 0 -1.09137,1.091378 1.0914061,1.0914061 0 0 0 0.31807,0.769841 l -2.41632,2.931853 0.49402,-3.836532 a 1.0914061,1.0914061 0 0 0 0.19861,0.01921 1.0914061,1.0914061 0 0 0 1.09176,-1.091378 1.0914061,1.0914061 0 0 0 -1.09176,-1.091378 1.0914061,1.0914061 0 0 0 -1.09138,1.091378 1.0914061,1.0914061 0 0 0 0.42142,0.859733 l -2.30684,3.768152 -1.62842,-4.206855 a 1.325267,1.325267 0 0 0 0.88701,-1.249264 1.325267,1.325267 0 0 0 -1.32533,-1.325326 z"
         id="path1026"
         inkscape:connector-curvature="0" />
    </g>
  </g>
</svg>
